inDegrees=no
num_controls=7
num_derivatives=13
num_iterations=76
num_multipliers=7
num_parameters=0
num_slacks=7
num_states=26
objective=0.334248
objective_accelerations=0.036786
objective_balance=0.001309
objective_effort=0.027044
objective_height=0.267639
objective_ligament=0.001471
solver_duration=784.338512
status=Solve_Succeeded
success=true
DataType=double
version=3
OpenSimVersion=4.5
endheader
time	/jointset/ground_pelvis/pelvis_tilt/value	/jointset/ground_pelvis/pelvis_tx/value	/jointset/ground_pelvis/pelvis_ty/value	/jointset/hip_r/hip_flexion_r/value	/jointset/hip_r/hip_adduction_r/value	/jointset/hip_r/hip_rotation_r/value	/jointset/back/lumbar_extension/value	/jointset/patellofemoral_r/patellar_flexion_r/value	/jointset/knee_r/knee_flexion_r/value	/jointset/knee_r/knee_adduction_r/value	/jointset/knee_r/knee_rotation_r/value	/jointset/ankle_r/ankle_angle_r/value	/jointset/subtalar_r/subtalar_angle_r/value	/jointset/ground_pelvis/pelvis_tilt/speed	/jointset/ground_pelvis/pelvis_tx/speed	/jointset/ground_pelvis/pelvis_ty/speed	/jointset/hip_r/hip_flexion_r/speed	/jointset/hip_r/hip_adduction_r/speed	/jointset/hip_r/hip_rotation_r/speed	/jointset/back/lumbar_extension/speed	/jointset/patellofemoral_r/patellar_flexion_r/speed	/jointset/knee_r/knee_flexion_r/speed	/jointset/knee_r/knee_adduction_r/speed	/jointset/knee_r/knee_rotation_r/speed	/jointset/ankle_r/ankle_angle_r/speed	/jointset/subtalar_r/subtalar_angle_r/speed	/forceset/tau_hip_flexion_r	/forceset/tau_hip_adduction_r	/forceset/tau_hip_rotation_r	/forceset/tau_knee_flexion_r	/forceset/tau_ankle_angle_r	/forceset/tau_subtalar_angle_r	/forceset/tau_lumbar_extension	lambda_cid13_p0	lambda_cid14_p0	lambda_cid14_p1	lambda_cid14_p2	lambda_cid14_p3	lambda_cid14_p4	lambda_cid14_p5	/jointset/ground_pelvis/pelvis_tilt/accel	/jointset/ground_pelvis/pelvis_tx/accel	/jointset/ground_pelvis/pelvis_ty/accel	/jointset/hip_r/hip_flexion_r/accel	/jointset/hip_r/hip_adduction_r/accel	/jointset/hip_r/hip_rotation_r/accel	/jointset/back/lumbar_extension/accel	/jointset/patellofemoral_r/patellar_flexion_r/accel	/jointset/knee_r/knee_flexion_r/accel	/jointset/knee_r/knee_adduction_r/accel	/jointset/knee_r/knee_rotation_r/accel	/jointset/ankle_r/ankle_angle_r/accel	/jointset/subtalar_r/subtalar_angle_r/accel	gamma_cid13_p0	gamma_cid14_p0	gamma_cid14_p1	gamma_cid14_p2	gamma_cid14_p3	gamma_cid14_p4	gamma_cid14_p5
1.5	-0.1088230050769932	0.03925621305104773	0.8173823240829842	0.8248518719614633	-0.2264691431515592	-0.1228555084464527	-0.6240076300985128	0.9323003961337978	0.9323003961337978	-0.0352709008256221	0.1745303838002339	0.3061695677780729	0.137733739921501	0.5184456071870529	0.2223482357242623	0.505815654460168	-2.058232757466047	-0.001181951782548385	-0.171477051393819	0.8019572494547249	-1.946401004655746	-1.946401004655746	0.4952456610958464	4.289142065132472e-05	-0.5255031313866838	-0.2110502315438542	-0.1711891795245857	0.02038476351291766	0.01750667106239991	-0.2824592927529167	-0.009006448265295636	-0.007641501093276153	0.2180218500397299	-9.555786055360945	-45.17548909462937	-10.5700381809512	1.354845249279512	-0.895117731585809	-627.7466615995617	51.73224366941559	0.1447757527127996	0.5353098087152968	-0.5349278884280356	-0.9588764907019754	-0.2657736978869323	-0.6821786638351338	1.738859521015865	-1.306034732760483	-1.306034732760483	0.4389954419460119	-0.02331269818942503	-0.6641601125650639	-0.4469403927708673	1.68942971846117e-07	1.392498342326409e-07	-1.058798416448872e-06	1.477145223327741e-06	1.925009187799258e-08	3.330292769999477e-07	-8.315754279808833e-07
1.51	-0.1036316820508218	0.04150621626407645	0.8224127276045063	0.804223617581567	-0.2264951804719353	-0.1246039543836443	-0.6159027187886039	0.9127735842034417	0.9127735842034417	-0.03029473732562032	0.1745307197912817	0.3008818549636388	0.1355998411190511	0.5197396438916821	0.2276234433665624	0.5001580015864175	-2.067143400369587	-0.004032539748931761	-0.1782223569660476	0.8189085081620424	-1.958691706806508	-1.958691706806508	0.4999496621030727	2.1569370271372e-05	-0.5319552656832407	-0.215687123650628	-0.1635427454170012	0.01836162906747354	0.01767928718900276	-0.2791281133048477	-0.006772968699135388	-0.008347737623314457	0.2111226787971946	-10.57836209278737	-44.17482804305424	-10.53807254598113	1.163020705496155	-1.037109401657548	-622.8632907655237	51.7780674286159	0.1098248507493072	0.519284775651552	-0.597176434291677	-0.8159347698632858	-0.2956142343591645	-0.671979590312022	1.655783390845011	-1.150168122997496	-1.150168122997458	0.480376543574345	0.008290641693493675	-0.6230791884359456	-0.465688374808376	1.6092238432837e-07	1.336502334281937e-07	-9.976127344577953e-07	1.428315274566156e-06	1.66460605850626e-08	3.27041033983906e-07	-8.117926154932113e-07
1.52	-0.0984297972133215	0.04380810326026099	0.8273833561078024	0.7835145014566988	-0.2265499062496443	-0.126420107993837	-0.6076317900225707	0.893131949218225	0.8931319492182251	-0.02527267899285351	0.1745308090818585	0.295532152986192	0.133420848444498	0.5205579694527632	0.2327249923554295	0.4938606508149411	-2.074405106460453	-0.00691964324912081	-0.1850185859940882	0.8351607406795725	-1.969365615627806	-1.969365615627806	0.5044246276488351	-6.448673877664014e-06	-0.5379009639891952	-0.2200690059645113	-0.1558963113094186	0.01633849462203118	0.01785190331560703	-0.2757969338567789	-0.004539489132974559	-0.009053974153349856	0.2042235075546574	-11.60283347885321	-43.17464055247478	-10.50485446430527	0.9694708305931805	-1.189483467189939	-617.9814289229295	51.88413876670683	0.04963352400312995	0.5005780780286999	-0.6628674679732334	-0.6290891281668864	-0.2730768046480661	-0.6923633549975229	1.5990542830584	-0.9826760668675242	-0.9826760668675241	0.3931883496532451	-0.02465189694324072	-0.562872914444561	-0.3959384341927906	1.590000638611071e-07	1.246957919122548e-07	-1.068083172265242e-06	1.312132466852197e-06	3.074991426274411e-08	3.181950043105681e-07	-8.603416690176832e-07
1.53	-0.09322213927920013	0.04616008204988956	0.8322878790583369	0.7627410690480465	-0.226633571168138	-0.1283051481492136	-0.5992018832869814	0.873391663391353	0.8733916633913527	-0.0202076656552548	0.1745308932955372	0.290125594740768	0.13119951774715	0.5208924046894985	0.2376358775323478	0.4869438587429105	-2.079999878751586	-0.009815502401675377	-0.1919879095181125	0.8506963492167754	-1.978411477646473	-1.978411477646473	0.5085433342639746	1.508387939073396e-05	-0.543320810717985	-0.2241487892715782	-0.1483026576502414	0.01416907353601808	0.01804488230265084	-0.2726272323743371	-0.002307074924288366	-0.009833512323674003	0.1973697519595228	-12.62630657489632	-42.20160801994751	-10.51458095985256	0.7900267930848509	-1.301096828059727	-613.3923103956076	51.97428177757239	0.01317484641132722	0.4811264638366749	-0.7210371689244441	-0.4824346358143269	-0.2981132110567972	-0.6987445620273384	1.512175555832023	-0.8235636536943439	-0.8235636536943231	0.4158280943626591	0.01448496999346815	-0.5180081772378849	-0.4068443597260079	1.635571521349836e-07	1.121768321403559e-07	-1.278438237358619e-06	1.124387246501342e-06	6.260589572170014e-08	3.06312576313853e-07	-9.814933301800572e-07
1.54	-0.08801357172813055	0.04856012623654998	0.83712024366973	0.7419201362452372	-0.2267462492262568	-0.1302597870820148	-0.590620348182664	0.853569314467428	0.853569314467428	-0.01510254199612128	0.174530978662457	0.2846675445030278	0.1289388200005788	0.5207398928423367	0.2423380717617976	0.4794289829866204	-2.083905185291833	-0.01272227117413642	-0.1989383414790347	0.8654864144252097	-1.985778235038261	-1.985778235038261	0.5124466919558485	-6.218026077417222e-06	-0.5481993624524425	-0.2279424158091401	-0.1407090039910661	0.01199965245000665	0.01823786128969876	-0.2694575308918954	-7.466071560165263e-05	-0.01061305049399549	0.1905159963643864	-13.64491963791361	-41.22981054266968	-10.52392396870657	0.6098362953812834	-1.418181304291937	-608.8150044179304	52.11786039626026	-0.04775589277628679	0.4588398885350002	-0.7824842048251184	-0.2911959779896779	-0.2752587286293628	-0.688585042377085	1.449945617304694	-0.646855141491818	-0.646855141491818	0.3501185650001257	-0.03321878869054551	-0.4546139155781157	-0.338707080291808	1.68950269792386e-07	1.008321743495029e-07	-1.491029564212019e-06	9.302420954922288e-07	9.422808811984938e-08	2.923244597940665e-07	-1.089970429134861e-06
1.55	-0.08280898246730602	0.05100609001277184	0.8418745491788441	0.7210686483020744	-0.2268878967088553	-0.1322846340765802	-0.5818947391831868	0.8336816817984407	0.8336816817984413	-0.009960249727519055	0.1745310289441134	0.2791634805890846	0.1266418711829385	0.5200948373925964	0.2468134623050076	0.4713400255245348	-2.086102738719371	-0.0156031140881261	-0.2060261240688664	0.8795000797012774	-1.991458685838122	-1.991458685838123	0.5159697487000857	7.532532410639117e-06	-0.5525185470675409	-0.2313917942869368	-0.1331507241276235	0.009725455101200459	0.01842392863692285	-0.2664898747845602	0.00221335380291126	-0.01148520380797181	0.1837024008420921	-14.65478112463129	-40.27050083876672	-10.58481373540492	0.4483011658804102	-1.50550349565639	-604.5670159127326	52.22955708661436	-0.08534153006622487	0.4357340603899685	-0.8358621554113682	-0.1405758293784173	-0.2939288117534655	-0.7179157229368069	1.356781117425257	-0.4852338786556031	-0.4852338786556448	0.3468528997867936	0.01743569092666577	-0.4062713283941754	-0.3399351185540787	1.753066386960247e-07	9.084051666724599e-08	-1.706197453528052e-06	7.287231113333836e-07	1.255809148609821e-07	2.759102238890021e-07	-1.183844228154858e-06
1.56	-0.07761333599277717	0.053495576779061	0.8465452129856351	0.7002038766637877	-0.2270582389683877	-0.1343801670681739	-0.5730330527040155	0.8137459258555703	0.8137459258555712	-0.00478403615734329	0.1745309694739179	0.2736190847102067	0.1243120522031143	0.5189513355831222	0.2510426697752564	0.4627006425220049	-2.086561924316612	-0.0184612265609043	-0.2130755408847217	0.8927019103640425	-1.995402889814877	-1.995402889814878	0.5192309522703736	-2.816839677394239e-05	-0.5562657554393785	-0.2345164482459526	-0.1255924442641825	0.007451257752396086	0.01860999598414372	-0.2635222186772256	0.00450136832142474	-0.01235735712194515	0.1768888053197962	-15.65319133584048	-39.31273198993811	-10.64616051330925	0.2870526193723444	-1.595560415534918	-600.3365558688822	52.38539423740542	-0.1474451647230699	0.4096032739427404	-0.8925693129139702	0.05647758806984857	-0.2707126403870668	-0.6809118875818304	1.287578694644155	-0.2996057768706131	-0.2996057768706131	0.2977479302102813	-0.04310908622506322	-0.3402186669259668	-0.273762176535654	1.854852419073675e-07	7.419890157294846e-08	-2.044545652386198e-06	3.775952135835031e-07	1.768145556683708e-07	2.333046064663002e-07	-1.291723839336901e-06
1.57	-0.07243166619855439	0.05602609769921958	0.8511268393628394	0.6793432081786982	-0.2272568590010595	-0.1365474114535072	-0.564043549238317	0.7937792858787628	0.7937792858787637	0.0004222985103058036	0.1745311827476418	0.2680401498022106	0.1219529202846508	0.5172946850358459	0.2550173669097804	0.4535430477216392	-2.085281477345031	-0.02126846238557527	-0.2203041735253264	0.9050493322655393	-1.997629723908781	-1.997629723908781	0.5220604083198894	4.006306925211248e-05	-0.5594266517862615	-0.2372747929290474	-0.1178846649864087	0.004872216303610786	0.01878793629862011	-0.2611940028156602	0.007407651564068965	-0.01331117283727351	0.1700169842334466	-16.63805969678138	-38.18979855858917	-10.72820975336362	0.1452737604016764	-1.815704744356635	-596.532771421421	52.62026782173874	-0.1879590850282904	0.3848401722910416	-0.9395694272995828	0.207376632905251	-0.2868876329761579	-0.733317678063193	1.185906361395361	-0.1399567905535159	-0.1399567905535181	0.2787914885902749	0.02702884718925147	-0.2897263340075965	-0.2721009938117036	2.004416380033406e-07	4.924483971360026e-08	-2.536869238171982e-06	-1.605438261551696e-07	2.528992140585791e-07	1.579597621465517e-07	-1.417110715721502e-06
1.58	-0.06726919972686372	0.05859505303854017	0.8556144468192995	0.6585040538395651	-0.2274837831078719	-0.1387848379103991	-0.5549350550689051	0.7737992306480359	0.7737992306480362	0.005657577147704498	0.1745311262528619	0.2624324656876579	0.1195671588434334	0.5151106710766332	0.2587295536076573	0.4438968583732048	-2.082259095125329	-0.02412204138900833	-0.2271119551964676	0.9165000511067524	-1.998085940598816	-1.998085940598816	0.5250197462201268	-8.212209780943251e-05	-0.5620155967506695	-0.2398423527967547	-0.1101768857086365	0.002293174854826284	0.01896587661309275	-0.2588657869540954	0.0103139348067135	-0.0142649885526005	0.1631451631470956	-17.60783676928104	-37.06830275680615	-10.81211272689189	0.005620358191659936	-2.031109598646887	-592.7434678814091	52.86985224777034	-0.2529178471103537	0.3571011866132935	-0.9902882225277018	0.4048646376940624	-0.2799812761394846	-0.5967416936891669	1.108238082587417	0.05451770390324116	0.05451770390324113	0.323724300354615	-0.08119241284256924	-0.2258283904309367	-0.2356052134581673	2.037760747405062e-07	1.188489633039031e-10	-3.132646413233054e-06	-1.107638249394857e-06	3.600857517569018e-07	9.950724469876372e-09	-1.441763371700658e-06
1.59	-0.06213123583722292	0.06119969226373853	0.8600032086590275	0.6377042566638425	-0.2277382453034613	-0.1410929398096801	-0.5457165422568927	0.7538234135077199	0.7538234135077195	0.01091773151418524	0.1745309147542081	0.2568021378112343	0.117158690006761	0.5124029542971212	0.2621423598686691	0.433781533517724	-2.07739414406105	-0.02676210065722996	-0.2344530808784632	0.9270415085633659	-1.996756663053601	-1.996756663053601	0.526999455328572	2.298470619952849e-05	-0.5639480432788632	-0.2417988041597777	-0.1028429713257863	7.20748762537412e-05	0.01889363920830404	-0.256048709087938	0.01233035228310568	-0.01514227155840904	0.1565405502341192	-18.56163206813526	-36.25150329112797	-10.90390227507762	-0.1467410365673537	-1.993638619394708	-589.2840188927782	53.03917356346339	-0.2915680441991648	0.325100314540686	-1.033327755730668	0.5732276389523845	-0.2556955350699966	-0.7946508451159681	1.002949167353	0.2202196564175626	0.2202196564175843	0.1326019177252078	0.05310301908272582	-0.1614715508572493	-0.1688724658010212	1.913378523478623e-07	-8.181190242470598e-08	-3.868824888024868e-06	-2.609743550243033e-06	5.09481982801949e-07	-2.366740041911944e-07	-1.329705299986719e-06
